<?xml version="1.0" encoding="UTF-8"?>
<svg version="1.1" xmlns="http://www.w3.org/2000/svg" width="1024" height="226">
<path d="M0 0 C7.39726994 -0.12813427 14.79424759 -0.2149033 22.19238281 -0.2746582 C24.70225722 -0.29960245 27.21206051 -0.33357032 29.72167969 -0.37719727 C67.04516079 -1.00916856 67.04516079 -1.00916856 80.5625 12 C88.47441995 20.3395913 91.85163006 31.06220822 92.0625 42.34375 C91.58021927 55.96818061 87.03985489 67.58672531 77 77 C72.89459335 80.05191229 68.49924533 82.57305005 64 85 C69.73326421 93.13690075 75.46907454 101.27186157 81.25 109.375 C81.65114014 109.94025391 82.05228027 110.50550781 82.46557617 111.08789062 C84.41077971 113.81984212 86.39195879 116.51086764 88.43359375 119.171875 C89.17738281 120.14640625 89.92117188 121.1209375 90.6875 122.125 C91.35136719 122.97320312 92.01523437 123.82140625 92.69921875 124.6953125 C94 127 94 127 93.58129883 129.14404297 C93.38947021 129.75650879 93.1976416 130.36897461 93 131 C89.25058747 131.17432891 85.50221491 131.28085841 81.75 131.375 C80.68652344 131.42527344 79.62304688 131.47554687 78.52734375 131.52734375 C75.57095132 131.58312474 72.90295825 131.56896157 70 131 C67.4655493 128.31348225 66 126.75717958 66 123 C65.34 123 64.68 123 64 123 C62.29269677 120.69911823 60.69816549 118.3906944 59.125 116 C53.73719384 107.97230499 48.02184149 100.2369499 42.15405273 92.55541992 C41.05355395 91.07217944 40.02448485 89.53672727 39 88 C36.06402461 87.61615491 33.31972627 87.396157 30.375 87.3125 C29.57320312 87.27833984 28.77140625 87.24417969 27.9453125 87.20898438 C25.96403682 87.12643122 23.98203963 87.06154084 22 87 C22.01047363 88.26183105 22.02094727 89.52366211 22.03173828 90.82373047 C22.06786899 95.49394914 22.09087516 100.16415539 22.10986328 104.83447266 C22.11993671 106.85793127 22.13359595 108.88137528 22.15087891 110.90478516 C22.17506847 113.80895589 22.18646949 116.71293461 22.1953125 119.6171875 C22.20563507 120.52556366 22.21595764 121.43393982 22.22659302 122.36984253 C22.22674408 123.21056305 22.22689514 124.05128357 22.22705078 124.91748047 C22.231492 125.65916473 22.23593323 126.400849 22.24050903 127.16500854 C22 129 22 129 20 131 C18.04467773 131.24291992 18.04467773 131.24291992 15.68359375 131.23046875 C14.83732422 131.22853516 13.99105469 131.22660156 13.11914062 131.22460938 C12.23419922 131.21236328 11.34925781 131.20011719 10.4375 131.1875 C9.54869141 131.18685547 8.65988281 131.18621094 7.74414062 131.18554688 C1.14021097 131.14021097 1.14021097 131.14021097 0 130 C-0.09405142 128.0056827 -0.11743249 126.00800457 -0.11352539 124.01147461 C-0.11344986 122.73022202 -0.11337433 121.44896942 -0.11329651 120.12889099 C-0.10818909 118.72004152 -0.10297309 117.31119244 -0.09765625 115.90234375 C-0.09579202 114.46887766 -0.09436814 113.03541093 -0.09336853 111.60194397 C-0.08954372 107.82240043 -0.07971377 104.0428951 -0.06866455 100.2633667 C-0.05844963 96.40930702 -0.05387074 92.55524118 -0.04882812 88.70117188 C-0.03809146 81.13409713 -0.02101549 73.56705391 0 66 C0.57914154 65.99413376 1.15828308 65.98826752 1.75497437 65.98222351 C7.82312519 65.91792163 13.89076358 65.83341042 19.95849609 65.73754883 C22.21819267 65.70444623 24.47796901 65.67636941 26.73779297 65.65356445 C30.0000179 65.61974783 33.26152139 65.56741884 36.5234375 65.51171875 C38.02093033 65.50213387 38.02093033 65.50213387 39.54867554 65.49235535 C48.8434357 65.30075553 56.44873519 63.47466699 64 58 C64.66 58 65.32 58 66 58 C68.84854871 49.09828529 69.71323709 38.74729007 66 30 C61.08912282 25.30263922 57.42289067 22.7654084 50.62060547 22.71289062 C49.54624237 22.69947632 48.47187927 22.68606201 47.36495972 22.67224121 C46.21069489 22.66696411 45.05643005 22.66168701 43.8671875 22.65625 C42.67900421 22.6416272 41.49082092 22.62700439 40.26663208 22.61193848 C35.178677 22.54959315 30.09060086 22.50996269 25.00244141 22.46826172 C21.29055794 22.43463358 17.57893802 22.38950367 13.8671875 22.34375 C12.70887421 22.3384729 11.55056091 22.3331958 10.35714722 22.32775879 C9.28908844 22.31434448 8.22102966 22.30093018 7.12060547 22.28710938 C6.17780731 22.27981812 5.23500916 22.27252686 4.26364136 22.26501465 C2 22 2 22 0 20 C-0.22705078 17.93701172 -0.22705078 17.93701172 -0.1953125 15.4296875 C-0.18886719 14.53378906 -0.18242187 13.63789062 -0.17578125 12.71484375 C-0.15902344 11.77769531 -0.14226562 10.84054688 -0.125 9.875 C-0.11597656 8.93011719 -0.10695313 7.98523437 -0.09765625 7.01171875 C-0.07404522 4.67422708 -0.04111516 2.33723877 0 0 Z " fill="#8171FA" transform="translate(504,49)"/>
<path d="M0 0 C3 1 3 1 4.36279297 3.21801758 C4.81799316 4.18376709 5.27319336 5.1495166 5.7421875 6.14453125 C6.25136719 7.21509766 6.76054688 8.28566406 7.28515625 9.38867188 C7.80980469 10.51853516 8.33445312 11.64839844 8.875 12.8125 C9.39191406 13.89982422 9.90882813 14.98714844 10.44140625 16.10742188 C13.42909961 22.44027821 16.19979832 28.83348623 18.86083984 35.30932617 C20.37224367 38.8792322 22.08663408 42.31285467 23.875 45.75 C26.55042566 50.99572283 29.05649438 56.27469424 31.375 61.6875 C34.00634198 67.82049863 36.79921948 73.85878759 39.6875 79.875 C45.09458135 91.14062571 50.35256556 102.47400916 55.53710938 113.84375 C56.57578379 116.08473513 57.64259202 118.31277556 58.72851562 120.53125 C59.28732422 121.68625 59.84613281 122.84125 60.421875 124.03125 C60.9384668 125.07861328 61.45505859 126.12597656 61.98730469 127.20507812 C63 130 63 130 62 134 C55.07 134 48.14 134 41 134 C36.50920967 125.85568534 32.51726066 118.10658215 29.3359375 109.36328125 C27.81308627 105.5294365 26.0124279 101.91401392 24.125 98.25 C21.30046824 92.76027922 18.78547083 87.23500289 16.5 81.5 C13.63293255 74.31541773 10.31983702 67.44730614 6.80078125 60.5625 C4.71250997 56.43125617 2.82298412 52.25362961 1 48 C-0.4029317 50.57968269 -1.7972937 53.1634672 -3.1875 55.75 C-3.57486328 56.46027344 -3.96222656 57.17054687 -4.36132812 57.90234375 C-7.15436508 63.11909047 -9.48498508 68.43980897 -11.72094727 73.91650391 C-13.80586483 78.94275105 -16.09282823 83.87344743 -18.375 88.8125 C-18.85614258 89.85857422 -19.33728516 90.90464844 -19.83300781 91.98242188 C-22.44986497 97.66544231 -25.08863239 103.33771365 -27.75 109 C-30.52862802 114.91211696 -33.15567587 120.88099058 -35.69238281 126.90039062 C-36.89254621 129.70313348 -37.82271043 131.82271043 -40 134 C-42.06298828 134.22705078 -42.06298828 134.22705078 -44.5703125 134.1953125 C-45.91416016 134.18564453 -45.91416016 134.18564453 -47.28515625 134.17578125 C-48.69087891 134.15064453 -48.69087891 134.15064453 -50.125 134.125 C-51.06988281 134.11597656 -52.01476562 134.10695312 -52.98828125 134.09765625 C-55.32577292 134.07404522 -57.66276123 134.04111516 -60 134 C-61.07519531 132.19262695 -61.07519531 132.19262695 -62 130 C-61.04194647 127.54576547 -60.03013248 125.46787936 -58.75 123.1875 C-55.15150492 116.42283787 -51.99765466 109.55078069 -49 102.5 C-45.8310014 95.09055355 -42.51557138 87.82251259 -38.83251953 80.65551758 C-36.15585418 75.41569705 -33.81485764 70.0640533 -31.50756836 64.65332031 C-29.82116789 60.74369559 -27.981262 57.01995097 -25.875 53.3125 C-23.73995366 49.54245765 -22.10885505 45.82070902 -20.625 41.75 C-18.51320294 35.99552388 -15.83694038 30.80255502 -12.87597656 25.45947266 C-10.4043917 20.93762249 -8.63651644 16.41297957 -7.0078125 11.51953125 C-5.30921561 7.27303904 -2.71059135 3.65929833 0 0 Z " fill="#6CB0F7" transform="translate(674,46)"/>
<path d="M0 0 C1.65 0 3.3 0 5 0 C5.4125 0.969375 5.825 1.93875 6.25 2.9375 C9.65289762 10.86163245 13.22189798 18.65547111 17.15820312 26.33007812 C19.17923013 30.28462376 21.02885576 34.28391123 22.81420898 38.34985352 C25.11979783 43.50265708 27.56026972 48.59362571 29.96969604 53.69848633 C35.98556672 66.45069806 41.83775084 79.26429455 47.55834961 92.15136719 C50.67803504 99.14811832 53.93770675 106.03230205 57.44897461 112.83984375 C60.4493556 118.72108168 62.78574099 124.78304202 65 131 C63 133 63 133 60.84521484 133.22705078 C59.97590332 133.21657715 59.1065918 133.20610352 58.2109375 133.1953125 C56.79941406 133.18564453 56.79941406 133.18564453 55.359375 133.17578125 C54.37453125 133.15902344 53.3896875 133.14226562 52.375 133.125 C51.38242187 133.11597656 50.38984375 133.10695312 49.3671875 133.09765625 C46.91121866 133.07404116 44.45572832 133.04110799 42 133 C35.32374257 118.91636761 35.32374257 118.91636761 32.625 112.25 C30.15025602 106.19701963 27.33825244 100.32525854 24.51708984 94.42871094 C20.81205846 86.66212919 17.32312195 78.80756752 13.85498047 70.93310547 C11.94078272 66.60511637 9.96719695 62.30406849 8 58 C7.06210961 55.93767749 6.12460555 53.87517925 5.1875 51.8125 C4.76855469 50.89082031 4.34960938 49.96914062 3.91796875 49.01953125 C3.61503906 48.35308594 3.31210937 47.68664062 3 47 C0.54716222 50.03547667 -1.08527876 53.07164974 -2.6875 56.625 C-3.21601562 57.79160156 -3.74453125 58.95820312 -4.2890625 60.16015625 C-5.43641746 62.72751152 -6.57516321 65.29859707 -7.7109375 67.87109375 C-8.32805414 69.26826047 -8.9452447 70.66539454 -9.5625 72.0625 C-9.88766602 72.79960205 -10.21283203 73.5367041 -10.54785156 74.29614258 C-14.28745182 82.72757217 -18.21891533 91.06906463 -22.12646484 99.42358398 C-26.0271835 107.80254658 -29.75490949 116.23861801 -33.28491211 124.78051758 C-33.6175708 125.5773999 -33.95022949 126.37428223 -34.29296875 127.1953125 C-34.5768042 127.88641113 -34.86063965 128.57750977 -35.15307617 129.28955078 C-36 131 -36 131 -38 133 C-40.06298828 133.22705078 -40.06298828 133.22705078 -42.5703125 133.1953125 C-43.91416016 133.18564453 -43.91416016 133.18564453 -45.28515625 133.17578125 C-46.69087891 133.15064453 -46.69087891 133.15064453 -48.125 133.125 C-49.06988281 133.11597656 -50.01476562 133.10695312 -50.98828125 133.09765625 C-53.32577292 133.07404522 -55.66276123 133.04111516 -58 133 C-59.13427734 131.32666016 -59.13427734 131.32666016 -60 129 C-59.25244141 126.53662109 -59.25244141 126.53662109 -57.8515625 123.7734375 C-57.34463867 122.75056641 -56.83771484 121.72769531 -56.31542969 120.67382812 C-55.75758789 119.58521484 -55.19974609 118.49660156 -54.625 117.375 C-53.49532224 115.10259216 -52.36772712 112.82914783 -51.2421875 110.5546875 C-50.68499023 109.43674805 -50.12779297 108.31880859 -49.55371094 107.16699219 C-47.50547799 102.99199568 -45.6048828 98.76364757 -43.75 94.5 C-40.94152333 88.08247935 -38.0127907 81.73461907 -35.00561523 75.40795898 C-32.18823171 69.4569197 -29.50563439 63.45070006 -26.87695312 57.4140625 C-24.82065999 52.72519025 -22.59908114 48.14330089 -20.29174805 43.57299805 C-18.13844543 39.28389271 -16.06649221 34.95645428 -14 30.625 C-13.56284668 29.70887939 -13.12569336 28.79275879 -12.67529297 27.84887695 C-9.9555041 22.11234578 -7.40123786 16.3531149 -5.02734375 10.46484375 C-3.53183647 6.87676354 -1.79076725 3.44888507 0 0 Z " fill="#6EA8F7" transform="translate(870,47)"/>
<path d="M0 0 C3.85285562 -0.26303192 7.70339593 -0.42172203 11.5625 -0.5625 C12.64853516 -0.63791016 13.73457031 -0.71332031 14.85351562 -0.79101562 C22.80428183 -1.00851379 22.80428183 -1.00851379 26.19873047 1.85449219 C27.99363672 4.15599815 29.51541244 6.48938984 31 9 C31.721875 9.95648438 32.44375 10.91296875 33.1875 11.8984375 C36.47228872 16.38670485 39.61654518 20.90619989 42.5625 25.625 C45.13706716 29.73507134 47.90805565 33.5213915 50.9296875 37.30859375 C55.31927442 43.01505675 59.36794109 48.97720304 63.50097656 54.87060547 C65.71128796 58.01039961 67.94882628 61.13039935 70.1875 64.25 C73.27286051 68.55432085 76.31205896 72.88572212 79.3125 77.25 C84.03307056 84.09732939 88.90874715 90.82849345 93.7890625 97.5625 C97.05634366 102.0717756 100.30194407 106.59626701 103.51855469 111.1418457 C105.44370973 113.85583502 107.40446641 116.52736697 109.4296875 119.16796875 C110.17476563 120.14378906 110.91984375 121.11960937 111.6875 122.125 C112.35136719 122.97320312 113.01523437 123.82140625 113.69921875 124.6953125 C115 127 115 127 114.58129883 129.14404297 C114.38947021 129.75650879 114.1976416 130.36897461 114 131 C94.11354799 134.00278374 94.11354799 134.00278374 87.73242188 129.34472656 C83.73486032 124.8982081 80.97830343 119.71996394 78.27148438 114.41894531 C76.53673964 111.11866674 74.49038015 108.21400241 72.3125 105.1875 C71.61511719 104.18332031 70.91773438 103.17914063 70.19921875 102.14453125 C67.68384804 98.54795323 65.16251522 94.95598806 62.625 91.375 C62.20774658 90.78227295 61.79049316 90.1895459 61.3605957 89.57885742 C59.4113905 86.84137947 57.49167529 84.26662075 55 82 C47.95886662 91.68736879 47.95886662 91.68736879 41.375 101.6875 C38.47704295 106.32558546 35.38372649 110.74619849 32.0390625 115.07421875 C29.87403135 118.00101957 29.87403135 118.00101957 28.3359375 121.58203125 C26.49363031 125.36874205 24.73062377 128.83271276 21 131 C13.14519604 132.62262795 4.9223201 131.79326466 -3 131 C-3.65625 129.19140625 -3.65625 129.19140625 -4 127 C-2.64702722 125.34260835 -1.27627102 123.69660112 0.1796875 122.12890625 C2.95124408 118.88749351 5.07149741 115.2819127 7.2890625 111.6484375 C9 109 9 109 10.8046875 106.7578125 C13.93333594 102.82751749 16.68962143 98.66139956 19.5 94.5 C22.85713284 89.52900738 26.20652127 84.65222226 30 80 C30.99839048 78.55475956 31.9785151 77.0966832 32.9375 75.625 C35.53495543 71.6792471 38.23131442 67.82730066 41 64 C39.34560302 60.41547322 37.20000915 57.27191142 35 54 C34.4328125 53.13761719 33.865625 52.27523437 33.28125 51.38671875 C24.62252859 38.26571767 15.41786819 25.52360879 6.1887207 12.80029297 C5.67011475 12.08502441 5.15150879 11.36975586 4.6171875 10.6328125 C4.15940918 10.00262207 3.70163086 9.37243164 3.22998047 8.72314453 C0 4.19809448 0 4.19809448 0 0 Z " fill="#63CBF5" transform="translate(222,49)"/>
<path d="M0 0 C16.85836969 1.91572383 30.9792706 7.82874269 43 20 C43.82242188 20.77988281 44.64484375 21.55976562 45.4921875 22.36328125 C48.21594084 25.2270406 50.43645546 28.2479375 52.5625 31.5625 C53.14837891 32.47515625 53.14837891 32.47515625 53.74609375 33.40625 C62.84323279 48.08988718 64.6353904 67.67221778 60.9375 84.4375 C55.62761697 101.83108882 44.3639359 117.69082253 28.1484375 126.32177734 C18.72994977 131.07731995 9.70385273 134.60587846 -1 134 C-2.18637743 130.44086771 -2.14615346 127.201855 -2.125 123.5 C-2.12886719 122.82324219 -2.13273437 122.14648438 -2.13671875 121.44921875 C-2.13062416 118.35926233 -1.9844023 115.95320689 -1 113 C1.66015625 111.97265625 1.66015625 111.97265625 5.0625 111.0625 C17.72401038 107.35635605 27.854935 101.21883788 34.5625 89.3125 C40.72573076 76.66725068 41.17723478 64.17456896 36.99609375 50.78515625 C32.29441685 38.48010746 24.72846984 31.85769731 13 26 C9.54589695 24.82037036 6.13266845 23.82588031 2.58203125 22.984375 C0 22 0 22 -1.34765625 20.328125 C-2.23425036 17.16399272 -2.2639134 14.28356294 -2.25 11 C-2.25515625 9.783125 -2.2603125 8.56625 -2.265625 7.3125 C-2.01981559 4.24711209 -1.6149234 2.56337048 0 0 Z " fill="#7C7CFA" transform="translate(417,47)"/>
<path d="M0 0 C1.5720124 3.14402481 1.18446744 6.48947397 1.1875 9.9375 C1.19974609 10.66646484 1.21199219 11.39542969 1.22460938 12.14648438 C1.23512685 15.9713391 1.17095624 17.74356564 -1 21 C-3.72265625 21.9921875 -3.72265625 21.9921875 -7.0625 22.875 C-18.45089915 26.1987068 -28.91566038 32.08401423 -34.90234375 42.73828125 C-40.83142163 54.95513566 -42.3637885 68.43972103 -38.375 81.5625 C-33.60341735 93.61614954 -25.41477253 102.46657816 -13.63671875 107.9765625 C-9.88590363 109.43243444 -6.07115472 110.42833349 -2.15234375 111.32421875 C-1.08693359 111.65873047 -1.08693359 111.65873047 0 112 C1.5720124 115.14402481 1.18446744 118.48947397 1.1875 121.9375 C1.19974609 122.66646484 1.21199219 123.39542969 1.22460938 124.14648438 C1.23512685 127.9713391 1.17095624 129.74356564 -1 133 C-14.01350629 134.39430425 -28.59370981 127.18516023 -38.63671875 119.265625 C-46.19109634 112.84785157 -51.34638784 105.7671755 -56 97 C-56.42925781 96.21238281 -56.85851562 95.42476563 -57.30078125 94.61328125 C-63.33981628 83.08421437 -63.28719056 71.74579047 -63 59 C-62.98324219 58.08734375 -62.96648437 57.1746875 -62.94921875 56.234375 C-62.12801035 41.68725486 -52.57602206 25.85414678 -42.11254883 15.96264648 C-32.42389332 7.45835662 -13.27374967 -4.09138344 0 0 Z " fill="#72A2F7" transform="translate(408,48)"/>
<path d="M0 0 C0.89460938 -0.00128906 1.78921875 -0.00257812 2.7109375 -0.00390625 C3.65195312 -0.00003906 4.59296875 0.00382812 5.5625 0.0078125 C6.97402344 0.00201172 6.97402344 0.00201172 8.4140625 -0.00390625 C9.75597656 -0.00197266 9.75597656 -0.00197266 11.125 0 C11.95128906 0.00112793 12.77757813 0.00225586 13.62890625 0.00341797 C15.5625 0.1328125 15.5625 0.1328125 16.5625 1.1328125 C16.66296143 2.78575276 16.6932617 4.44299605 16.69621277 6.09898376 C16.70047775 7.17447983 16.70474274 8.24997589 16.70913696 9.35806274 C16.70868378 10.54821991 16.70823059 11.73837708 16.70776367 12.96459961 C16.71112228 14.20999008 16.7144809 15.45538055 16.71794128 16.73851013 C16.72583729 20.16411434 16.72912024 23.58965796 16.72975707 27.01526713 C16.73070453 29.87077366 16.73438095 32.72627431 16.73792917 35.58177859 C16.7460814 42.31648495 16.7485127 49.05117794 16.74780273 55.78588867 C16.74720175 62.74265409 16.75775582 69.69934201 16.7735464 76.65608782 C16.78660402 82.6204248 16.79198738 88.58473641 16.79134732 94.54908758 C16.79109181 98.11503256 16.79397232 101.68090872 16.80452538 105.24683952 C16.81596702 109.22180104 16.81147045 113.19665552 16.80541992 117.17163086 C16.81103943 118.35976379 16.81665894 119.54789673 16.82244873 120.77203369 C16.81825424 121.85034958 16.81405975 122.92866547 16.80973816 124.03965759 C16.81028293 124.9804312 16.81082769 125.92120481 16.81138897 126.89048672 C16.5625 129.1328125 16.5625 129.1328125 14.5625 131.1328125 C12.71484375 131.39160156 12.71484375 131.39160156 10.5 131.3984375 C9.70335937 131.40101563 8.90671875 131.40359375 8.0859375 131.40625 C6.83683594 131.39464844 6.83683594 131.39464844 5.5625 131.3828125 C4.72976562 131.39054688 3.89703125 131.39828125 3.0390625 131.40625 C2.24242187 131.40367187 1.44578125 131.40109375 0.625 131.3984375 C-0.10589844 131.39618164 -0.83679687 131.39392578 -1.58984375 131.39160156 C-3.4375 131.1328125 -3.4375 131.1328125 -5.4375 129.1328125 C-5.68638897 126.89048672 -5.68638897 126.89048672 -5.68473816 124.03965759 C-5.68893265 122.96134171 -5.69312714 121.88302582 -5.69744873 120.77203369 C-5.69182922 119.58390076 -5.68620972 118.39576782 -5.68041992 117.17163086 C-5.68326744 115.30091667 -5.68326744 115.30091667 -5.68617249 113.39241028 C-5.68924859 109.96686154 -5.68335696 106.54155275 -5.67321944 103.11603236 C-5.66445187 99.53703754 -5.66619612 95.95804695 -5.6665802 92.37904358 C-5.66564307 86.36912861 -5.65695195 80.35926408 -5.64331055 74.34936523 C-5.62757737 67.39201048 -5.62231266 60.43471095 -5.6230461 53.47733968 C-5.62365555 46.79458849 -5.61855818 40.11185535 -5.61025429 33.42910957 C-5.60671552 30.580235 -5.6048902 27.73136682 -5.60436058 24.88249016 C-5.60317345 20.90983995 -5.59347722 16.93723611 -5.58276367 12.96459961 C-5.58321686 11.77444244 -5.58367004 10.58428528 -5.58413696 9.35806274 C-5.57987198 8.28256668 -5.57560699 7.20707062 -5.57121277 6.09898376 C-5.56953692 5.15858718 -5.56786108 4.21819059 -5.56613445 3.24929714 C-5.32998235 -0.63622727 -3.41362263 0.00465978 0 0 Z " fill="#7D7DFA" transform="translate(51.4375,48.8671875)"/>
<path d="M0 0 C6.93 0 13.86 0 21 0 C21.99205414 2.97616242 22.13024773 4.93493521 22.14044189 8.04136658 C22.14900711 9.60391426 22.14900711 9.60391426 22.15774536 11.19802856 C22.15886322 12.34045013 22.15998108 13.4828717 22.16113281 14.65991211 C22.16609772 15.86336777 22.17106262 17.06682343 22.17617798 18.30674744 C22.1882859 21.60840218 22.19574425 24.9099936 22.20018864 28.21166301 C22.20312062 30.27426028 22.20722561 32.33685201 22.21169281 34.39944649 C22.22536298 40.85259441 22.23503265 47.30572965 22.2388947 53.75889105 C22.24337795 61.2089775 22.26094007 68.65888072 22.2898953 76.10891145 C22.3115014 81.86780166 22.32159836 87.62664027 22.32293582 93.38557059 C22.32398439 96.8252791 22.32990337 100.26481526 22.34775543 103.70448112 C22.3672752 107.53994561 22.36295142 111.37518032 22.35644531 115.21069336 C22.3656601 116.3510907 22.37487488 117.49148804 22.3843689 118.66644287 C22.37879974 119.71096115 22.37323059 120.75547943 22.36749268 121.83164978 C22.36895924 122.73848479 22.3704258 123.64531981 22.3719368 124.57963467 C21.92489723 127.48872856 20.99875842 128.86918057 19 131 C17.02294922 131.4699707 17.02294922 131.4699707 14.8046875 131.42578125 C14.00675781 131.41740234 13.20882812 131.40902344 12.38671875 131.40039062 C11.55785156 131.37138672 10.72898437 131.34238281 9.875 131.3125 C9.03839844 131.30283203 8.20179688 131.29316406 7.33984375 131.28320312 C1.16817197 131.16817197 1.16817197 131.16817197 0 130 C-0.09616807 128.31708304 -0.12187691 126.63010439 -0.12025452 124.94444275 C-0.12162918 123.84922806 -0.12300385 122.75401337 -0.12442017 121.62561035 C-0.12082489 120.41360962 -0.11722961 119.20160889 -0.11352539 117.95288086 C-0.11367142 116.68477066 -0.11381744 115.41666046 -0.1139679 114.11012268 C-0.11425585 110.62267578 -0.10835945 107.13526299 -0.10139394 103.64782405 C-0.09516007 100.00696277 -0.09455658 96.36610078 -0.09336853 92.72523499 C-0.09025531 85.82623028 -0.08204205 78.92724135 -0.07201904 72.0282436 C-0.06085761 64.17589315 -0.05534738 56.32354197 -0.05032361 48.47118556 C-0.03985943 32.31411421 -0.02205971 16.15705973 0 0 Z " fill="#7776FA" transform="translate(957,49)"/>
<path d="M0 0 C1.0442086 0.00303635 1.0442086 0.00303635 2.10951233 0.00613403 C2.83956985 0.00438171 3.56962738 0.00262939 4.32180786 0.00082397 C6.74650924 -0.00359443 9.17113828 -0.00065661 11.59584045 0.00271606 C13.27353428 0.00204302 14.95122802 0.00107299 16.62892151 -0.00018311 C20.14964219 -0.00166006 23.67033755 0.0004944 27.1910553 0.00515747 C31.71419541 0.01085476 36.23727619 0.00757574 40.76041412 0.00158501 C44.22611441 -0.00202067 47.69180052 -0.00088199 51.15750122 0.0017128 C52.8257447 0.00238205 54.49398945 0.00155371 56.16223145 -0.00076675 C58.48974539 -0.00329339 60.81716193 0.00054744 63.14466858 0.00613403 C63.84080765 0.0041098 64.53694672 0.00208557 65.25418091 0 C70.01282772 0.02126583 70.01282772 0.02126583 71.12709045 1.13552856 C71.30734807 4.10830177 71.4052124 7.03568113 71.43959045 10.01052856 C71.48309631 11.25382935 71.48309631 11.25382935 71.52748108 12.52224731 C71.53585999 13.320177 71.54423889 14.11810669 71.5528717 14.94021606 C71.56745422 15.67224243 71.58203674 16.4042688 71.59706116 17.15847778 C71.12709045 19.13552856 71.12709045 19.13552856 69.5247345 20.73582458 C66.31309033 22.61072805 64.00565058 22.50974875 60.29481506 22.50784302 C59.6162999 22.51149368 58.93778473 22.51514435 58.2387085 22.51890564 C56.00202698 22.52699376 53.76607384 22.51341769 51.5294342 22.49880981 C49.97292074 22.49829105 48.41640662 22.49880937 46.8598938 22.50032043 C43.60079647 22.50023079 40.34194692 22.48981699 37.082901 22.47171021 C32.90410709 22.44900435 28.72567455 22.44848316 24.5468359 22.45522785 C21.33409408 22.45856783 18.12143475 22.45193754 14.90870857 22.44209862 C13.3677215 22.43824823 11.82672525 22.43709774 10.28573418 22.43868446 C8.13363498 22.43905501 5.98200071 22.42643895 3.82997131 22.41018677 C2.60515549 22.40557938 1.38033966 22.40097198 0.1184082 22.39622498 C-2.87290955 22.13552856 -2.87290955 22.13552856 -5.87290955 20.13552856 C-6.22935486 18.1802063 -6.22935486 18.1802063 -6.20103455 15.81912231 C-6.19330017 14.54971802 -6.19330017 14.54971802 -6.18540955 13.25466919 C-6.16478455 12.36972778 -6.14415955 11.48478638 -6.12290955 10.57302856 C-6.1177533 9.68421997 -6.11259705 8.79541138 -6.10728455 7.87966919 C-6.01144559 0.02686444 -6.01144559 0.02686444 0 0 Z " fill="#75AAF7" transform="translate(136.87290954589844,48.864471435546875)"/>
<path d="M0 0 C1.0442086 0.00303635 1.0442086 0.00303635 2.10951233 0.00613403 C2.83956985 0.00438171 3.56962738 0.00262939 4.32180786 0.00082397 C6.74650924 -0.00359443 9.17113828 -0.00065661 11.59584045 0.00271606 C13.27353428 0.00204302 14.95122802 0.00107299 16.62892151 -0.00018311 C20.14964219 -0.00166006 23.67033755 0.0004944 27.1910553 0.00515747 C31.71419541 0.01085476 36.23727619 0.00757574 40.76041412 0.00158501 C44.22611441 -0.00202067 47.69180052 -0.00088199 51.15750122 0.0017128 C52.8257447 0.00238205 54.49398945 0.00155371 56.16223145 -0.00076675 C58.48974539 -0.00329339 60.81716193 0.00054744 63.14466858 0.00613403 C63.84080765 0.0041098 64.53694672 0.00208557 65.25418091 0 C70.01282772 0.02126583 70.01282772 0.02126583 71.12709045 1.13552856 C71.2537681 4.12571018 71.31229884 7.08246964 71.31459045 10.07302856 C71.32683655 10.91027466 71.33908264 11.74752075 71.35169983 12.61013794 C71.35363342 13.41129028 71.35556702 14.21244263 71.3575592 15.03787231 C71.36166809 15.7751355 71.36577698 16.51239868 71.37001038 17.27200317 C71.12709045 19.13552856 71.12709045 19.13552856 69.12709045 21.13552856 C66.08398438 21.38276672 66.08398438 21.38276672 62.12294006 21.37844849 C61.04226509 21.38129601 61.04226509 21.38129601 59.9397583 21.38420105 C57.55287372 21.38791281 55.16629184 21.37720002 52.7794342 21.36599731 C51.12559037 21.36480574 49.47174585 21.36435231 47.81790161 21.36460876 C44.35020213 21.36304326 40.88260579 21.35474787 37.41493225 21.34133911 C32.96019434 21.32433591 28.50556974 21.3205251 24.05080318 21.32128429 C20.63571075 21.32101297 17.2206433 21.31553803 13.80555916 21.30828285 C12.16243746 21.30509112 10.51931291 21.30312761 8.87618828 21.30238914 C6.5846914 21.30023164 4.29331706 21.29150072 2.00184631 21.28079224 C0.04232277 21.27507454 0.04232277 21.27507454 -1.95678711 21.26924133 C-4.87290955 21.13552856 -4.87290955 21.13552856 -5.87290955 20.13552856 C-5.97151086 18.73204121 -6.00369891 17.32372379 -6.00572205 15.91677856 C-6.00701111 15.06728638 -6.00830017 14.21779419 -6.0096283 13.34255981 C-6.00576111 12.4492395 -6.00189392 11.55591919 -5.99790955 10.63552856 C-6.00177673 9.74220825 -6.00564392 8.84888794 -6.0096283 7.92849731 C-6.00833923 7.07900513 -6.00705017 6.22951294 -6.00572205 5.35427856 C-6.00459412 4.56988403 -6.00346619 3.7854895 -6.00230408 2.97732544 C-5.73416801 -0.83931322 -3.23932269 0.01447615 0 0 Z " fill="#67C0F6" transform="translate(136.87290954589844,158.86447143554688)"/>
<path d="M0 0 C1.16801147 -0.00630432 2.33602295 -0.01260864 3.53942871 -0.019104 C5.42546814 -0.01303131 5.42546814 -0.01303131 7.34960938 -0.00683594 C9.29123962 -0.00970612 9.29123962 -0.00970612 11.27209473 -0.01263428 C14.00908187 -0.01557922 16.74593824 -0.01130829 19.48291016 -0.00195312 C22.98676208 0.00944118 26.49030757 0.00287832 29.99414825 -0.00909805 C33.34182637 -0.01807301 36.68942256 -0.01178459 40.03710938 -0.00683594 C41.29446899 -0.0108844 42.55182861 -0.01493286 43.84729004 -0.019104 C45.01530151 -0.01279968 46.18331299 -0.00649536 47.38671875 0 C48.92749084 0.00238678 48.92749084 0.00238678 50.49938965 0.00482178 C53.2213235 0.26142531 54.86925119 0.8620886 57.19335938 2.25878906 C57.22224452 5.4046033 57.24011861 8.55038375 57.25585938 11.69628906 C57.26423828 12.59412109 57.27261719 13.49195312 57.28125 14.41699219 C57.28447266 15.27099609 57.28769531 16.125 57.29101562 17.00488281 C57.29625244 17.79564209 57.30148926 18.58640137 57.30688477 19.40112305 C57.19335938 21.25878906 57.19335938 21.25878906 56.19335938 22.25878906 C54.17385729 22.35814054 52.15085023 22.38678414 50.12890625 22.38818359 C48.18183777 22.39291183 48.18183777 22.39291183 46.19543457 22.3977356 C44.76765916 22.39594582 43.33988406 22.39389486 41.91210938 22.39160156 C40.458618 22.39227464 39.00512673 22.3932447 37.55163574 22.39450073 C34.50169811 22.39597752 31.45178971 22.39382376 28.40185547 22.38916016 C24.48405378 22.38346287 20.56632059 22.38674197 16.64852142 22.39273262 C13.64605184 22.39633875 10.64359861 22.39519941 7.64112854 22.39260483 C6.196172 22.3919357 4.75121399 22.39276348 3.30625916 22.39508438 C1.29011054 22.39761171 -0.72604325 22.39307958 -2.7421875 22.38818359 C-4.4664093 22.3869902 -4.4664093 22.3869902 -6.22546387 22.38577271 C-8.80664062 22.25878906 -8.80664062 22.25878906 -9.80664062 21.25878906 C-9.89315673 19.84308783 -9.91368966 18.42319406 -9.90429688 17.00488281 C-9.90107422 16.15087891 -9.89785156 15.296875 -9.89453125 14.41699219 C-9.88615234 13.51916016 -9.87777344 12.62132813 -9.86914062 11.69628906 C-9.86462891 10.79458984 -9.86011719 9.89289063 -9.85546875 8.96386719 C-9.84364287 6.72877593 -9.82716283 4.4938147 -9.80664062 2.25878906 C-6.45079359 0.24205286 -3.88651217 0.00602052 0 0 Z " fill="#6DB0F7" transform="translate(140.806640625,102.7412109375)"/>
<path d="M0 0 C0.9897583 0.02094727 1.9795166 0.04189453 2.99926758 0.06347656 C4.07241211 0.07636719 5.14555664 0.08925781 6.2512207 0.10253906 C7.37077148 0.13605469 8.49032227 0.16957031 9.64379883 0.20410156 C10.77495117 0.22214844 11.90610352 0.24019531 13.0715332 0.25878906 C15.86730258 0.30597504 18.66137855 0.37179561 21.45629883 0.45410156 C21.95129883 1.44410156 21.95129883 1.44410156 22.45629883 2.45410156 C18.99292455 9.11082432 14.26942042 15.15435254 9.81958008 21.17675781 C6.78050836 25.34200329 3.91451296 29.62620839 1.01879883 33.89160156 C-6.77643356 45.31531966 -6.77643356 45.31531966 -10.60620117 50.57910156 C-11.27780273 51.50980469 -11.9494043 52.44050781 -12.64135742 53.39941406 C-14.64733207 55.56603144 -15.65333321 56.13223431 -18.54370117 56.45410156 C-18.54370117 55.79410156 -18.54370117 55.13410156 -18.54370117 54.45410156 C-19.20370117 54.45410156 -19.86370117 54.45410156 -20.54370117 54.45410156 C-22.21186356 52.40371368 -23.73002731 50.3711748 -25.23120117 48.20410156 C-25.65981445 47.61757812 -26.08842773 47.03105469 -26.5300293 46.42675781 C-29.57379227 42.06452102 -29.57379227 42.06452102 -29.43432617 39.23535156 C-28.03561297 36.43792516 -26.41888222 33.95434296 -24.54370117 31.45410156 C-23.88370117 31.45410156 -23.22370117 31.45410156 -22.54370117 31.45410156 C-22.26655273 30.71160156 -21.9894043 29.96910156 -21.70385742 29.20410156 C-20.64639464 26.69752311 -19.51334104 24.68901783 -17.98120117 22.45410156 C-17.4578418 21.68710938 -16.93448242 20.92011719 -16.39526367 20.12988281 C-15.78424805 19.246875 -15.17323242 18.36386719 -14.54370117 17.45410156 C-13.78050714 16.34354349 -13.0174964 15.23285943 -12.25463867 14.12207031 C-10.02976574 10.8908257 -7.79954858 7.66385016 -5.54370117 4.45410156 C-5.12072754 3.7419751 -4.69775391 3.02984863 -4.26196289 2.29614258 C-2.54370117 0.45410156 -2.54370117 0.45410156 0 0 Z " fill="#63CBF5" transform="translate(311.543701171875,48.5458984375)"/>
<path d="M0 0 C0.76166977 0.00222061 1.52333954 0.00444122 2.30809021 0.00672913 C3.16890701 0.00680466 4.02972382 0.00688019 4.91662598 0.00695801 C5.8520372 0.01211929 6.78744843 0.01728058 7.75120544 0.02259827 C8.70422043 0.02401321 9.65723541 0.02542816 10.63912964 0.02688599 C13.69605085 0.032503 16.75289996 0.04505836 19.80979919 0.05775452 C21.87685543 0.06276733 23.94391281 0.06733061 26.01097107 0.07142639 C31.08977507 0.08247795 36.16852489 0.09975397 41.24729919 0.12025452 C41.27618066 3.43273638 41.29405719 6.74518619 41.30979919 10.05775452 C41.3181781 11.00328186 41.32655701 11.9488092 41.33518982 12.92298889 C41.33841248 13.82210999 41.34163513 14.72123108 41.34495544 15.64759827 C41.35019226 16.48025208 41.35542908 17.31290588 41.36082458 18.17079163 C41.24729919 20.12025452 41.24729919 20.12025452 40.24729919 21.12025452 C37.14478719 21.20899586 34.06461799 21.23543907 30.96214294 21.21791077 C30.03132401 21.21649582 29.10050507 21.21508087 28.14147949 21.21362305 C25.15588728 21.20800624 22.1703689 21.19545091 19.18479919 21.18275452 C17.16592007 21.17774168 15.14703977 21.1731784 13.12815857 21.16908264 C8.16784348 21.15803135 3.20758387 21.14075547 -1.75270081 21.12025452 C-2.89215597 18.84134419 -2.88164294 17.55243348 -2.88551331 15.02259827 C-2.88680237 14.22144592 -2.88809143 13.42029358 -2.88941956 12.59486389 C-2.88555237 11.7576178 -2.88168518 10.9203717 -2.87770081 10.05775452 C-2.88156799 9.21664124 -2.88543518 8.37552795 -2.88941956 7.50892639 C-2.87763633 0.19743744 -2.87763633 0.19743744 0 0 Z " fill="#719DF8" transform="translate(77.75270080566406,158.87974548339844)"/>
</svg>
